<svg xmlns="http://www.w3.org/2000/svg" xmlns:xlink="http://www.w3.org/1999/xlink" version="1.1" id="Layer_1" x="0px" y="0px" width="74.999px" height="100px" viewBox="0 0 74.999 100" enable-background="new 0 0 74.999 100" xml:space="preserve">
<path d="M69.444,15.277v79.167H13.889v-0.002c-4.595,0-8.333-3.737-8.333-8.333c0-4.595,3.738-8.333,8.333-8.333h18.055H61.11V0  H11.111C4.975,0,0,4.975,0,11.111V86.11c0,7.658,6.23,13.889,13.889,13.889V100h61.11v-0.001V15.277H69.444z M32.477,9.722  c2.615,0,4.74,2.128,4.74,4.739c0,2.622-2.125,4.729-4.74,4.729c-2.62,0-4.739-2.107-4.739-4.729  C27.738,11.85,29.857,9.722,32.477,9.722z M26.414,21.087h12.124l7.295,20.907l-1.685,1.147l-7.079-13.159c0,0-0.895,0-0.895,2.284  l7.67,18.385h-7.292l-2.361,17.402h-3.436l-2.361-17.402h-7.294l7.673-18.388c0-2.281-0.896-2.281-0.896-2.281l-7.073,13.159  l-1.69-1.147L26.414,21.087z"/>
</svg>